<svg width="24" height="24" viewBox="0 0 24 24" fill="none" xmlns="http://www.w3.org/2000/svg">
<path d="M12 23C18.0751 23 23 18.0751 23 12C23 5.92487 18.0751 1 12 1C5.92487 1 1 5.92487 1 12C1 18.0751 5.92487 23 12 23Z" stroke="#31CC2E" stroke-width="2" stroke-linecap="round" stroke-linejoin="round"/>
<path d="M12.2796 18.6759C15.9247 18.6759 18.8796 15.7209 18.8796 12.0759C18.8796 8.43079 15.9247 5.47587 12.2796 5.47587C8.63454 5.47587 5.67962 8.43079 5.67962 12.0759C5.67962 15.7209 8.63454 18.6759 12.2796 18.6759Z" stroke="#31CC2E" stroke-width="2" stroke-linecap="round" stroke-linejoin="round"/>
<path d="M12 14.2C13.215 14.2 14.2 13.215 14.2 12C14.2 10.785 13.215 9.8 12 9.8C10.785 9.8 9.8 10.785 9.8 12C9.8 13.215 10.785 14.2 12 14.2Z" stroke="#31CC2E" stroke-width="2" stroke-linecap="round" stroke-linejoin="round"/>
</svg>
